inDegrees=no
num_controls=7
num_derivatives=13
num_iterations=126
num_multipliers=7
num_parameters=0
num_slacks=7
num_states=26
objective=0.469857
objective_accelerations=0.063849
objective_balance=0.002059
objective_effort=0.020271
objective_height=0.374157
objective_ligament=0.009520
solver_duration=1755.998260
status=Solve_Succeeded
success=true
DataType=double
version=3
OpenSimVersion=4.5
endheader
time	/jointset/ground_pelvis/pelvis_tilt/value	/jointset/ground_pelvis/pelvis_tx/value	/jointset/ground_pelvis/pelvis_ty/value	/jointset/hip_l/hip_flexion_l/value	/jointset/hip_l/hip_adduction_l/value	/jointset/hip_l/hip_rotation_l/value	/jointset/back/lumbar_extension/value	/jointset/patellofemoral_l/patellar_flexion_l/value	/jointset/knee_l/knee_flexion_l/value	/jointset/knee_l/knee_adduction_l/value	/jointset/knee_l/knee_rotation_l/value	/jointset/ankle_l/ankle_angle_l/value	/jointset/subtalar_l/subtalar_angle_l/value	/jointset/ground_pelvis/pelvis_tilt/speed	/jointset/ground_pelvis/pelvis_tx/speed	/jointset/ground_pelvis/pelvis_ty/speed	/jointset/hip_l/hip_flexion_l/speed	/jointset/hip_l/hip_adduction_l/speed	/jointset/hip_l/hip_rotation_l/speed	/jointset/back/lumbar_extension/speed	/jointset/patellofemoral_l/patellar_flexion_l/speed	/jointset/knee_l/knee_flexion_l/speed	/jointset/knee_l/knee_adduction_l/speed	/jointset/knee_l/knee_rotation_l/speed	/jointset/ankle_l/ankle_angle_l/speed	/jointset/subtalar_l/subtalar_angle_l/speed	/forceset/tau_hip_flexion_l	/forceset/tau_hip_adduction_l	/forceset/tau_hip_rotation_l	/forceset/tau_knee_flexion_l	/forceset/tau_ankle_angle_l	/forceset/tau_subtalar_angle_l	/forceset/tau_lumbar_extension	lambda_cid13_p0	lambda_cid13_p1	lambda_cid13_p2	lambda_cid13_p3	lambda_cid13_p4	lambda_cid13_p5	lambda_cid14_p0	/jointset/ground_pelvis/pelvis_tilt/accel	/jointset/ground_pelvis/pelvis_tx/accel	/jointset/ground_pelvis/pelvis_ty/accel	/jointset/hip_l/hip_flexion_l/accel	/jointset/hip_l/hip_adduction_l/accel	/jointset/hip_l/hip_rotation_l/accel	/jointset/back/lumbar_extension/accel	/jointset/patellofemoral_l/patellar_flexion_l/accel	/jointset/knee_l/knee_flexion_l/accel	/jointset/knee_l/knee_adduction_l/accel	/jointset/knee_l/knee_rotation_l/accel	/jointset/ankle_l/ankle_angle_l/accel	/jointset/subtalar_l/subtalar_angle_l/accel	gamma_cid13_p0	gamma_cid13_p1	gamma_cid13_p2	gamma_cid13_p3	gamma_cid13_p4	gamma_cid13_p5	gamma_cid14_p0
1.5	-0.5589046424558066	-0.04123015986654189	0.7899047328702807	1.209471474147841	-0.3469884754372643	-0.116651376344843	-0.3423914071575283	0.5707288213728343	0.5707288213721524	-0.05715422103953384	-0.1744492133358548	0.01601715491297666	0.07991526931805423	1.085134826669898	0.4979570526422284	0.476477490043869	-2.830666890197124	-0.0008431237167448281	-0.5195091617080329	0.6026227374351575	-1.549689603926058	-1.549689603925965	-0.2098858617445656	0.003998928330125028	0.08677067808957686	0.03112248391279659	-0.2037394928056105	0.01372292769913225	0.007115119614039448	-0.06422598611616817	0.03204603689711664	0.01332566308315767	0.1659297911018546	-13.32193523708143	-5.8412569594567	3.376198135742168	-6.850397265068979	-429.9453902568738	-63.27542535579304	-20.03424645964924	0.8019871313530654	0.8548858872459519	-0.609178486281946	-1.726333836698936	0.2418679786063983	-0.2392713745556937	1.818806893652242	-0.5913437763872426	-0.5913437763872798	-0.3586810783283043	0.1871989265335421	0.2811944435970096	0.3369112393397389	-2.104032851200864e-08	1.419396380121256e-06	1.213108002769046e-07	2.932059925235752e-07	2.411487843490115e-07	-1.387650009287061e-07	2.1955742422296e-07
1.51	-0.5480139549450472	-0.03620837430009922	0.7946381047188593	1.181080935869898	-0.3469857117699881	-0.1218602733537584	-0.3362760768427791	0.5552042281100905	0.5552042281094269	-0.05927161920390828	-0.1744025412476105	0.01689881289745881	0.08024241654332473	1.092826091234952	0.506333768392644	0.4700949975451779	-2.847052075900748	0.001411240136284541	-0.5222200718580137	0.6203647966520086	-1.555027151553096	-1.555027151553153	-0.2135523339313499	0.005354130088576841	0.08956823932559262	0.0343255281678277	-0.1968273986871047	0.01334454666442696	0.007436009053625148	-0.06278540719436025	0.02931807754251461	0.01212914924461981	0.1608333286093567	-14.06638965279984	-5.380308121710138	3.518645801129169	-6.22437781780113	-426.1515725752493	-62.76752134478922	-20.55085577188407	0.7262287096902798	0.8191796208100071	-0.668011642241315	-1.536283520310613	0.2192739310612068	-0.2793019643381978	1.740126106312044	-0.4747229173270916	-0.4747229173497311	-0.3641296471437361	0.1124141697714486	0.2801769836396162	0.3145512122165031	-1.716654910638858e-08	1.45427000135086e-06	6.004163166119534e-08	2.945217238741712e-07	2.6450837313991e-07	-1.227026239925163e-07	2.304824353644257e-07
1.52	-0.5370516482705131	-0.03110479853577832	0.7993046062403354	1.152538211218298	-0.3469599937957003	-0.1270947396899914	-0.3299856818017385	0.5396323068387706	0.5396323068381456	-0.06142438196179472	-0.1743417704679322	0.01780867449830881	0.08060210424987185	1.09945865942435	0.5143150922178756	0.46310342462336	-2.861104164929036	0.003747737685708538	-0.5246230271727517	0.6376356826932791	-1.559155205638735	-1.559155205638943	-0.2169587804497428	0.006818666617846954	0.09241140136303978	0.03763058016812779	-0.1899153045685743	0.01296616562974604	0.007756898493303382	-0.06134482827254376	0.02659011818792191	0.01093263540610854	0.1557368661168747	-14.81494614123827	-4.916880062795896	3.65868702089267	-5.579688169011875	-422.4154305204181	-62.293580622926	-21.0460629179177	0.5902478562220349	0.7758075022091395	-0.7309945709073128	-1.259714501631968	0.2582947178853062	-0.1776804075071958	1.724572258536145	-0.3494450681075759	-0.3494450681075788	-0.3066759446500563	0.2090658806971651	0.2903146038833007	0.3573127883935279	1.029981742365759e-08	1.42361888444629e-06	-1.699529983300617e-07	2.772348765901729e-07	3.336083513513861e-07	-1.057773177809503e-07	2.57586764484836e-07
1.53	-0.5260281358580322	-0.02592346996633586	0.8038982323309127	1.12386627353362	-0.3469110783541242	-0.1323503805429617	-0.3235252934326795	0.5240249117584804	0.5240249117586677	-0.06361162589565444	-0.1742649807066563	0.01874691313678919	0.08099465719344119	1.105064334008536	0.521873473527498	0.4555258606378751	-2.872881409902521	0.006045438306774949	-0.5264415479952457	0.6543469792941609	-1.562117275733589	-1.562117275733718	-0.2204521893069029	0.00856667510403206	0.09523789919647645	0.04089140318752377	-0.1830816325856491	0.01241346709362702	0.008054886901725886	-0.05985671503364971	0.02376917633776855	0.00969598582286715	0.1506493709995802	-15.60542044156645	-4.431508790222506	3.798458788761041	-4.871605676552201	-418.8220205522429	-61.81011164644902	-21.51710112083676	0.5188382305322981	0.7343252932270502	-0.7854243768752215	-1.076391978312389	0.2168846483340704	-0.174133790828115	1.630156587229139	-0.2386728963556218	-0.2386728963436929	-0.3648007458312896	0.161569814898822	0.2790883041152532	0.3120707197868084	6.283330777340624e-08	1.323347733274163e-06	-5.792184310328363e-07	2.401827895069185e-07	4.513074933222252e-07	-8.793514921429699e-08	3.018816189578746e-07
1.54	-0.5149539445055044	-0.02066886321421954	0.8084132253687341	1.095088630902588	-0.3468389105235145	-0.1376222457784016	-0.3169006424523382	0.5083940789940076	0.5083940789950046	-0.0658326293960011	-0.1741699305640479	0.01971347093981215	0.08142013909941927	1.109594447433335	0.5289707287526468	0.4473768140721541	-2.882245154200232	0.008398215492514962	-0.5278679036660442	0.6704882049496397	-1.563842742475696	-1.563842742475745	-0.2237106937473572	0.01047074288300236	0.09807523427156972	0.04421637264988635	-0.1762479606027298	0.0118607685574922	0.008352875310134884	-0.05836860179475515	0.02094823448761195	0.008459336239608681	0.1455618758822844	-16.39951550687815	-3.945632004347513	3.93829741703013	-4.153459375134374	-415.2811344429105	-61.38606754800226	-21.96313999153757	0.3751356243444988	0.6835822853144067	-0.8452910869545583	-0.7770143664769518	0.2693100308200201	-0.09924737716815549	1.610558069455542	-0.1021243975581733	-0.1021243975581689	-0.2596950613089294	0.2402777392541899	0.2924820522146167	0.3701420769868421	8.951754319370866e-08	1.307425919790596e-06	-7.889790035888026e-07	2.2090932978641e-07	5.304066907831123e-07	-6.125312915259785e-08	3.272032624908228e-07
1.55	-0.5038398248727992	-0.0153457013810639	0.8128439589169191	1.066229387416399	-0.3467429866760701	-0.142906610660055	-0.3101176902631618	0.4927520452190743	0.4927520452196109	-0.06808507172320506	-0.1740552168696855	0.02070830724280878	0.08187910039959569	1.113045526197982	0.5355727414822071	0.4386806440268553	-2.889183302816504	0.01078968991200306	-0.528927834698945	0.6859865507980693	-1.564349855800871	-1.564349855800883	-0.2267477194681235	0.01250306257619265	0.1008869020928592	0.04757812893430421	-0.1694771813161108	0.01121669199419694	0.008627794682383907	-0.05690769046511649	0.01813742857373425	0.007059546056506208	0.1404731402780886	-17.21232017104238	-3.386956830877922	4.068047804558167	-3.376067570187392	-411.9234355558161	-60.85499305581099	-22.38471734749288	0.3025311944363417	0.6352208658065897	-0.8950508403496948	-0.5891388755209844	0.224367037229517	-0.09751181079340454	1.50212052943063	0.00705218899570563	0.007052189001245718	-0.3209703073657538	0.1891646666892114	0.2747796573375595	0.3193924945497866	8.641894141269422e-08	1.38868921277428e-06	-7.688752807582416e-07	2.22119940722977e-07	5.650320391347093e-07	-2.438606280312905e-08	3.306644673319291e-07
1.56	-0.4926967070140644	-0.009959177400806693	0.8171850765892447	1.037313377690782	-0.3466230879064878	-0.1481992040209303	-0.3031832250781222	0.4771113517086915	0.4771113517087621	-0.0703669371035924	-0.1739192888619195	0.02173111432606838	0.08237171928069234	1.115394092639088	0.541643158172959	0.4294536389002697	-2.893598402085522	0.01319319992014903	-0.52951359950954	0.7007908041222559	-1.56357468956633	-1.563574689566305	-0.2295953043851029	0.01471360556289351	0.1036693903242063	0.05094788883394263	-0.1627064020295093	0.01057261543087752	0.00890271405461816	-0.05544677913548397	0.01532662265984863	0.005659755873376685	0.1353844046738849	-18.02763636923585	-2.827333844280424	4.1970675989065	-2.593067975788341	-408.6001844470799	-60.37796802325244	-22.78121564967576	0.1546331596361334	0.5772630775527066	-0.9514581032119233	-0.2724044970263019	0.2717171485515941	-0.004414132706964301	1.471739564606914	0.1543315143850433	0.1543315143849702	-0.2218069005515469	0.2759223979563017	0.28664613422613	0.3717428000309512	8.220100533925471e-08	1.480405730293029e-06	-7.452012309316017e-07	2.251829107397903e-07	6.004600675413678e-07	1.38908754541995e-08	3.347316456215953e-07
1.57	-0.4815356494945543	-0.004514727296777197	0.8214313623136212	1.008365859220828	-0.3464791458355231	-0.1534956519857266	-0.2961045798869201	0.4614847041357145	0.4614847041355779	-0.07267630871549081	-0.1737606882376349	0.02278143349346827	0.08289797555574986	1.11662303021575	0.5471450081456937	0.4197211905591198	-2.895457501089845	0.01559029615884687	-0.5296928287426638	0.7147903589496188	-1.561530759303907	-1.561530759303815	-0.2322545768934941	0.01703276679540439	0.1063808519718897	0.05429480125867842	-0.1558762491170512	0.009683404827547615	0.009140891589255466	-0.05422056125135606	0.01275289163368562	0.004167631401249207	0.1302047300186672	-18.78625917035167	-2.228998762862451	4.310162380495934	-1.795812604572203	-405.4836001079881	-59.89165460598217	-23.1522691116239	0.07789202902763243	0.5214145156022238	-0.9963539385456045	-0.07545759836217691	0.2227562783410374	-0.01193062437754403	1.341882166547588	0.2629651743346244	0.2629651743447678	-0.2840556027006904	0.2136494543266007	0.2614016941685208	0.3147046568411008	7.658390140028383e-08	1.585188778480611e-06	-7.170642723598629e-07	2.305613296069115e-07	6.36891446016853e-07	5.39301535963527e-08	3.395562907219616e-07
1.58	-0.4703681290048087	0.0009816950186733581	0.8255778804067907	0.9794131907615845	-0.3463114227188097	-0.1587913429040071	-0.2888903754024949	0.4458852041437811	0.4458852041434606	-0.07501148668778249	-0.173578148707359	0.02385846838017075	0.08345740879368393	1.116686686686266	0.5520376004571711	0.409500112658796	-2.894628399943242	0.01794940907003304	-0.5293621902062875	0.7279026627668447	-1.558145173354934	-1.558145173354775	-0.2347565764705977	0.01950138676504194	0.109012534184736	0.05758328140926251	-0.1490460962045938	0.008794194224213431	0.009379069124029494	-0.05299434336723909	0.0101791606075179	0.002675506929114388	0.1250250553634524	-19.54670044069744	-1.629205307031078	4.421723475017457	-0.995030635147312	-402.3888853641647	-59.45450893501947	-23.49786269811108	-0.07842306159325675	0.4554115453012552	-1.049184015046725	0.2652355331588189	0.2641204830492555	0.09755942119302895	1.294289362579482	0.4226626516951624	0.4226626516952126	-0.190352314294031	0.3058141453816383	0.2706902472587203	0.360056345200609	7.048175900182845e-08	1.683003366401314e-06	-6.88634289592442e-07	2.347028676973343e-07	6.727536020299764e-07	9.51249068191435e-08	3.428598988368371e-07
